{
  "accessors": [
    {
      "bufferView": 2,
      "componentType": 5126,
      "count": 65532,
      "max": [
        1.4082080125808716,
        4.939312934875488,
        4.447055816650391
      ],
      "min": [
        0.0028840303421020508,
        0.0,
        0.0
      ],
      "type": "VEC3"
    },
    {
      "bufferView": 2,
      "byteOffset": 786384,
      "componentType": 5126,
      "count": 65532,
      "max": [
        0.9999575614929199,
        0.9999966621398926,
        0.9999012351036072
      ],
      "min": [
        -0.9999968409538269,
        -0.9999552369117737,
        -0.9999997615814209
      ],
      "type": "VEC3"
    },
    {
      "bufferView": 1,
      "componentType": 5126,
      "count": 65532,
      "max": [
        0.0,
        0.0
      ],
      "min": [
        0.0,
        0.0
      ],
      "type": "VEC2"
    },
    {
      "bufferView": 0,
      "componentType": 5125,
      "count": 352776,
      "type": "SCALAR"
    },
    {
      "bufferView": 2,
      "byteOffset": 1572768,
      "componentType": 5126,
      "count": 65532,
      "max": [
        1.4642690420150757,
        4.939312934875488,
        4.066214084625244
      ],
      "min": [
        0.0,
        0.0,
        8.893013000488281e-05
      ],
      "type": "VEC3"
    },
    {
      "bufferView": 2,
      "byteOffset": 2359152,
      "componentType": 5126,
      "count": 65532,
      "max": [
        0.999654233455658,
        0.9999998807907104,
        0.9999821782112122
      ],
      "min": [
        -0.9999922513961792,
        -1.0,
        -0.9999927282333374
      ],
      "type": "VEC3"
    },
    {
      "bufferView": 1,
      "byteOffset": 524256,
      "componentType": 5126,
      "count": 65532,
      "max": [
        0.0,
        0.0
      ],
      "min": [
        0.0,
        0.0
      ],
      "type": "VEC2"
    },
    {
      "bufferView": 0,
      "byteOffset": 1411104,
      "componentType": 5125,
      "count": 339003,
      "type": "SCALAR"
    },
    {
      "bufferView": 2,
      "byteOffset": 3145536,
      "componentType": 5126,
      "count": 65532,
      "max": [
        1.6287100315093994,
        4.501873016357422,
        4.04636287689209
      ],
      "min": [
        0.023814022541046143,
        0.3249797821044922,
        0.0010728836059570313
      ],
      "type": "VEC3"
    },
    {
      "bufferView": 2,
      "byteOffset": 3931920,
      "componentType": 5126,
      "count": 65532,
      "max": [
        0.9999968409538269,
        0.9999957084655762,
        0.9965880513191223
      ],
      "min": [
        -0.9999922513961792,
        -0.999995768070221,
        -0.9999036192893982
      ],
      "type": "VEC3"
    },
    {
      "bufferView": 1,
      "byteOffset": 1048512,
      "componentType": 5126,
      "count": 65532,
      "max": [
        0.0,
        0.0
      ],
      "min": [
        0.0,
        0.0
      ],
      "type": "VEC2"
    },
    {
      "bufferView": 0,
      "byteOffset": 2767116,
      "componentType": 5125,
      "count": 312447,
      "type": "SCALAR"
    },
    {
      "bufferView": 2,
      "byteOffset": 4718304,
      "componentType": 5126,
      "count": 65532,
      "max": [
        1.6284970045089722,
        4.939312934875488,
        4.476260185241699
      ],
      "min": [
        0.7464050054550171,
        0.001096963882446289,
        0.05572199821472168
      ],
      "type": "VEC3"
    },
    {
      "bufferView": 2,
      "byteOffset": 5504688,
      "componentType": 5126,
      "count": 65532,
      "max": [
        0.9999922513961792,
        0.9999966621398926,
        0.9999821782112122
      ],
      "min": [
        -0.9998766183853149,
        -0.9999731183052063,
        -0.9999576807022095
      ],
      "type": "VEC3"
    },
    {
      "bufferView": 1,
      "byteOffset": 1572768,
      "componentType": 5126,
      "count": 65532,
      "max": [
        0.0,
        0.0
      ],
      "min": [
        0.0,
        0.0
      ],
      "type": "VEC2"
    },
    {
      "bufferView": 0,
      "byteOffset": 4016904,
      "componentType": 5125,
      "count": 305751,
      "type": "SCALAR"
    },
    {
      "bufferView": 2,
      "byteOffset": 6291072,
      "componentType": 5126,
      "count": 4331,
      "max": [
        1.4256800413131714,
        4.939312934875488,
        4.472794055938721
      ],
      "min": [
        0.05757802724838257,
        0.32317399978637695,
        0.1878490447998047
      ],
      "type": "VEC3"
    },
    {
      "bufferView": 2,
      "byteOffset": 6343044,
      "componentType": 5126,
      "count": 4331,
      "max": [
        0.9999024271965027,
        0.9992246627807617,
        0.9983888268470764
      ],
      "min": [
        -0.9999845027923584,
        -0.9999577403068542,
        -0.999837338924408
      ],
      "type": "VEC3"
    },
    {
      "bufferView": 1,
      "byteOffset": 2097024,
      "componentType": 5126,
      "count": 4331,
      "max": [
        0.0,
        0.0
      ],
      "min": [
        0.0,
        0.0
      ],
      "type": "VEC2"
    },
    {
      "bufferView": 0,
      "byteOffset": 5239908,
      "componentType": 5125,
      "count": 8265,
      "type": "SCALAR"
    }
  ],
  "asset": {
    "extras": {
      "author": "pahko (https://sketchfab.com/pahko)",
      "license": "CC-BY-4.0 (http://creativecommons.org/licenses/by/4.0/)",
      "source": "https://sketchfab.com/3d-models/alien-queen-embryo-e6c3cda9d35745d0b257480dfc318c49",
      "title": "Alien Queen Embryo"
    },
    "generator": "Sketchfab-12.67.0",
    "version": "2.0"
  },
  "bufferViews": [
    {
      "buffer": 0,
      "byteLength": 5272968,
      "name": "floatBufferViews",
      "target": 34963
    },
    {
      "buffer": 0,
      "byteLength": 2131672,
      "byteOffset": 5272968,
      "byteStride": 8,
      "name": "floatBufferViews",
      "target": 34962
    },
    {
      "buffer": 0,
      "byteLength": 6395016,
      "byteOffset": 7404640,
      "byteStride": 12,
      "name": "floatBufferViews",
      "target": 34962
    }
  ],
  "buffers": [
    {
      "byteLength": 13799656,
      "uri": "scene.bin"
    }
  ],
  "images": [
    {
      "uri": "textures/null_baseColor.png"
    }
  ],
  "materials": [
    {
      "doubleSided": true,
      "name": "null",
      "pbrMetallicRoughness": {
        "baseColorFactor": [
          0.0,
          0.0,
          0.0,
          1.0
        ],
        "baseColorTexture": {
          "index": 0
        },
        "metallicFactor": 0.0,
        "roughnessFactor": 0.6
      }
    }
  ],
  "meshes": [
    {
      "name": "Object_0",
      "primitives": [
        {
          "attributes": {
            "NORMAL": 1,
            "POSITION": 0,
            "TEXCOORD_0": 2
          },
          "indices": 3,
          "material": 0,
          "mode": 4
        }
      ]
    },
    {
      "name": "Object_1",
      "primitives": [
        {
          "attributes": {
            "NORMAL": 5,
            "POSITION": 4,
            "TEXCOORD_0": 6
          },
          "indices": 7,
          "material": 0,
          "mode": 4
        }
      ]
    },
    {
      "name": "Object_2",
      "primitives": [
        {
          "attributes": {
            "NORMAL": 9,
            "POSITION": 8,
            "TEXCOORD_0": 10
          },
          "indices": 11,
          "material": 0,
          "mode": 4
        }
      ]
    },
    {
      "name": "Object_3",
      "primitives": [
        {
          "attributes": {
            "NORMAL": 13,
            "POSITION": 12,
            "TEXCOORD_0": 14
          },
          "indices": 15,
          "material": 0,
          "mode": 4
        }
      ]
    },
    {
      "name": "Object_4",
      "primitives": [
        {
          "attributes": {
            "NORMAL": 17,
            "POSITION": 16,
            "TEXCOORD_0": 18
          },
          "indices": 19,
          "material": 0,
          "mode": 4
        }
      ]
    }
  ],
  "nodes": [
    {
      "children": [
        1
      ],
      "matrix": [
        1.0,
        -1.6081226229577284e-16,
        -2.8327693431939995e-16,
        0.0,
        -2.832769343193999e-16,
        5.053215392444312e-16,
        -1.0,
        0.0,
        1.6081226229577292e-16,
        1.0,
        5.053215392444312e-16,
        0.0,
        -1.5308849972200597e-16,
        1.942890293094024e-16,
        4.3140830754274083e-32,
        1.0
      ],
      "name": "Sketchfab_model"
    },
    {
      "children": [
        2,
        3,
        4,
        5,
        6
      ],
      "matrix": [
        1.0,
        0.0,
        0.0,
        0.0,
        0.0,
        1.0,
        0.0,
        0.0,
        0.0,
        0.0,
        1.0,
        0.0,
        -0.8143550157546997,
        -3.109752893447876,
        -2.413712978363037,
        1.0
      ],
      "name": "queen.obj.cleaner.gles"
    },
    {
      "mesh": 0,
      "name": "Object_2"
    },
    {
      "mesh": 1,
      "name": "Object_3"
    },
    {
      "mesh": 2,
      "name": "Object_4"
    },
    {
      "mesh": 3,
      "name": "Object_5"
    },
    {
      "mesh": 4,
      "name": "Object_6"
    }
  ],
  "samplers": [
    {
      "magFilter": 9729,
      "minFilter": 9987,
      "wrapS": 10497,
      "wrapT": 10497
    }
  ],
  "scene": 0,
  "scenes": [
    {
      "name": "Sketchfab_Scene",
      "nodes": [
        0
      ]
    }
  ],
  "textures": [
    {
      "sampler": 0,
      "source": 0
    }
  ]
}
